<?xml version="1.0" encoding="utf-8"?>
<!-- Generator: Adobe Illustrator 19.2.1, SVG Export Plug-In . SVG Version: 6.00 Build 0)  -->
<svg version="1.1" id="Capa_1" xmlns="http://www.w3.org/2000/svg" xmlns:xlink="http://www.w3.org/1999/xlink" x="0px" y="0px"
	 viewBox="0 0 200 133.1" style="enable-background:new 0 0 200 133.1;" xml:space="preserve">
<style type="text/css">
	.st0{fill:#0073A5;}
	.st1{fill:#BEBEBE;}
	.st2{fill:none;stroke:#0073A5;stroke-width:1.4604;}
	.st3{font-family:'Myriad-Bold';}
	.st4{font-size:8.9522px;}
</style>
<rect x="3.2" y="84.9" class="st0" width="11.2" height="32.4"/>
<path class="st0" d="M20.8,84.9H31v6h0.1c2.2-4.7,6.7-6.7,11.8-6.7c4.6,0,8.4,2,10.1,6.2c2.6-4.3,6.9-6.2,11.5-6.2
	c9.3,0,11.4,5.3,11.4,14v19.1H64.8V99.8c0-3.7-1.3-6.4-4.5-6.4c-4,0-6.3,3.2-6.3,10.1v13.7H42.8V99.8c0-3.7-1.3-6.4-4.5-6.4
	c-4,0-6.3,3.2-6.3,10.1v13.7H20.8V84.9z"/>
<path class="st0" d="M108.3,94.1c-2-1.2-4.1-1.8-6.8-1.8c-4.8,0-8.6,3.3-8.6,8.9c0,5.2,4.4,8.5,9.2,8.5c2.5,0,5.1-0.6,7-1.5l0.2,8.3
	c-2.8,0.9-6.1,1.4-9.1,1.4c-10.7,0-18.8-6.2-18.8-16.9c0-10.7,8.1-17,18.8-17c3.4,0,6.3,0.6,8.9,1.8L108.3,94.1z"/>
<path class="st0" d="M176,94.1c-2.1-1.2-4.1-1.8-6.8-1.8c-4.8,0-8.6,3.3-8.6,8.9c0,5.2,4.3,8.5,9.2,8.5c2.5,0,5.1-0.6,7-1.5l0.2,8.3
	c-2.8,0.9-6.1,1.4-9.1,1.4c-10.7,0-18.8-6.2-18.8-16.9c0-10.7,8.1-17,18.8-17c3.4,0,6.3,0.6,8.9,1.8L176,94.1z"/>
<path class="st0" d="M114.4,121.8c1.5,0.5,2.9,0.7,4.4,0.7c2.7,0,4.8-1.6,5.7-4.5l-13.1-33.1h12.1l7,21.1h0.1l6.6-21.1h11.2
	L136.5,115c-3.2,8.1-5.6,16-15.8,16c-2.4,0-4.7-0.2-7-0.7L114.4,121.8z"/>
<path class="st1" d="M134.5,27.6c2.3-2.9,5.7-4.7,9.7-4.7c3.9,0,7.4,1.8,9.7,4.7l17.3-10C165.5,8.8,155.5,3,144.2,3
	c-11.3,0-21.2,5.8-27,14.6L134.5,27.6z"/>
<path class="st1" d="M142.4,47.4c-6-0.9-10.5-6-10.5-12.2c0-1.6,0.3-3.1,0.9-4.6l-17.3-10c-2.2,4.4-3.5,9.3-3.5,14.5
	c0,17.2,13.5,31.2,30.5,32.2V47.4z"/>
<path class="st0" d="M173,20.7l-17.3,10c0.6,1.4,0.9,2.9,0.9,4.6c0,6.2-4.6,11.3-10.5,12.2v20c17-0.9,30.5-15,30.5-32.2
	C176.5,30,175.2,25.1,173,20.7z"/>
<path class="st2" d="M185.6,88.6c0-3.4,2.7-6.1,6.1-6.1s6.1,2.7,6.1,6.1c0,3.3-2.7,6.1-6.1,6.1S185.6,91.9,185.6,88.6z"/>
<g>
	<text transform="matrix(1.1 0 0 1 188.8984 91.5762)" class="st0 st3 st4">R</text>
</g>
</svg>
